<?xml version="1.0" encoding="UTF-8"?>
<svg version="1.1" xmlns="http://www.w3.org/2000/svg" width="512" height="512">
<path d="M0 0 C0.98870087 0.00081573 0.98870087 0.00081573 1.99737549 0.00164795 C12.98518911 0.04321429 22.98607267 1.00315509 33.4375 4.375 C34.11377441 4.58398926 34.79004883 4.79297852 35.48681641 5.00830078 C59.22365123 12.50503002 81.34501969 29.0955763 94.4375 50.375 C95.01886719 51.28507812 95.60023438 52.19515625 96.19921875 53.1328125 C111.82431241 78.55324686 115.95543329 108.98359351 109.375 137.9375 C104.3816754 158.15256086 93.90964464 180.04634064 76.4375 192.375 C76.0971875 191.49199219 75.756875 190.60898438 75.40625 189.69921875 C72.03069532 181.34112991 68.16914525 174.41673559 62.4375 167.375 C61.83292969 166.59511719 61.22835937 165.81523437 60.60546875 165.01171875 C50.6944112 152.93066124 35.98811769 145.41175228 21.4375 140.375 C23.30306843 138.43169955 25.19075801 136.57764342 27.2734375 134.8671875 C36.71745054 127.08763653 42.37497647 117.1596304 44.3125 105 C45.21474758 92.02151555 40.90053367 80.44209339 32.6875 70.5 C28.48504823 66.08142214 23.88789508 63.06145066 18.4375 60.375 C17.77621094 60.0346875 17.11492187 59.694375 16.43359375 59.34375 C7.38051967 55.51701027 -5.42919815 55.90014578 -14.625 59 C-26.45990873 64.19360673 -35.60400656 72.25815659 -40.58984375 84.359375 C-44.69968951 97.1015474 -44.23372542 108.58027036 -38.4375 120.625 C-34.21722649 128.86202562 -28.44736946 134.64407832 -20.5625 139.375 C-22.72438592 141.53688592 -24.63087661 142.24068522 -27.4621582 143.27661133 C-46.53322259 150.26061377 -61.91508289 163.52790682 -71.23046875 181.61328125 C-72.06040654 183.45082679 -72.86364286 185.30096429 -73.625 187.16796875 C-74.5625 189.375 -74.5625 189.375 -76.5625 192.375 C-92.93956816 177.22877621 -102.84204545 158.74531596 -108.5625 137.375 C-108.91441406 136.10849609 -108.91441406 136.10849609 -109.2734375 134.81640625 C-115.64845133 108.16145711 -109.75697911 78.94042316 -96.8359375 55.203125 C-95.17062597 52.51125156 -93.42427108 49.93442822 -91.5625 47.375 C-90.98113281 46.57191406 -90.39976562 45.76882812 -89.80078125 44.94140625 C-71.85975098 21.43376701 -46.90272779 5.83696421 -17.64379883 0.76977539 C-11.77446471 0.01779748 -5.91029545 -0.00826195 0 0 Z " fill="#000000" transform="translate(255.5625,-0.375)"/>
<path d="M0 0 C2.3634964 0.89902629 4.67166549 1.88124217 6.98394775 2.90484619 C7.85851624 3.2779895 8.73308472 3.65113281 9.63415527 4.0355835 C12.49917194 5.26191008 15.35482628 6.50852132 18.21051025 7.75640869 C20.20138199 8.61580814 22.19276313 9.47402839 24.18463135 10.33111572 C27.27047233 11.65994367 30.35545515 12.99058546 33.43783569 14.3274231 C40.61323072 17.43814671 47.81686452 20.47389472 55.03863525 23.47515869 C57.92023276 24.68045393 60.80107295 25.88753578 63.68151855 27.09558105 C65.52772397 27.86676949 67.37598955 28.63304514 69.22631836 29.39428711 C71.80296318 30.45614489 74.37060208 31.53742422 76.93707275 32.62359619 C77.69747864 32.93123901 78.45788452 33.23888184 79.24133301 33.55584717 C83.59609123 35.42600109 85.93567904 36.98033501 87.83551025 41.38140869 C88.269104 43.44390869 88.269104 43.44390869 88.27301025 45.38140869 C88.29234619 46.02078369 88.31168213 46.66015869 88.331604 47.31890869 C87.42608963 51.08356689 85.26625565 53.48387339 82.00714111 55.52838135 C79.89194386 56.64770557 77.7549537 57.68392928 75.58551025 58.69390869 C74.46789307 59.23241455 74.46789307 59.23241455 73.32769775 59.78179932 C71.50225447 60.65941628 69.66957606 61.52195692 67.83551025 62.38140869 C68.63108317 63.60536702 69.42665609 64.82932536 70.222229 66.05328369 C70.74244629 66.85363037 71.26266357 67.65397705 71.79864502 68.47857666 C72.95924389 70.26408811 74.11988928 72.04956932 75.28057861 73.83502197 C78.33903034 78.53988872 81.39673448 83.24523766 84.45269775 87.95172119 C85.03060059 88.84149658 85.60850342 89.73127197 86.20391846 90.64801025 C87.30951264 92.35029707 88.41483134 94.05276285 89.51983643 95.75543213 C90.02748535 96.53692627 90.53513428 97.31842041 91.0581665 98.12359619 C91.53342773 98.85940918 92.00868896 99.59522217 92.49835205 100.35333252 C93.33290593 101.61910558 94.18806285 102.87181082 95.07305908 104.10284424 C97.34809276 107.2769688 98.40423141 109.51835992 98.39801025 113.44390869 C98.41992432 114.25988525 98.44183838 115.07586182 98.4644165 115.91656494 C97.00856126 121.6224324 90.99956863 124.8269189 86.284729 127.85015869 C85.66709183 128.25295044 85.04945465 128.65574219 84.4131012 129.07073975 C82.45339789 130.34670343 80.48830784 131.61408308 78.52301025 132.88140869 C77.21601588 133.73112524 75.90937212 134.58138134 74.60308838 135.43218994 C72.1122075 137.05275234 69.61649404 138.66535469 67.11553955 140.27032471 C65.1684962 141.52347572 63.22737246 142.78603373 61.29962158 144.06866455 C55.20196648 148.07129733 55.20196648 148.07129733 51.14801025 147.94390869 C50.44289307 147.94519775 49.73777588 147.94648682 49.0112915 147.94781494 C41.91376007 146.10016313 38.70521142 138.87165724 35.14801025 133.06890869 C33.90714359 131.07980285 32.66494971 129.09152438 31.42144775 127.10406494 C30.5102417 125.64250977 30.5102417 125.64250977 29.58062744 124.15142822 C27.21137772 120.39072489 24.75772537 116.6914855 22.27301025 113.00640869 C19.03099422 108.18721322 15.86854458 103.33536476 12.83551025 98.38140869 C12.41140869 98.74492432 11.98730713 99.10843994 11.550354 99.48297119 C10.3124761 100.5440094 9.06991665 101.59959989 7.8237915 102.65093994 C6.55612546 103.75423279 5.31952632 104.89503114 4.128479 106.08062744 C0.33754076 109.74727263 -2.6879607 111.34536613 -8.012146 111.62750244 C-11.48466399 111.23046318 -13.58682917 109.6368617 -16.16448975 107.38140869 C-17.87928323 103.95182173 -17.32094115 100.01221602 -17.32562256 96.23760986 C-17.33058746 95.28949936 -17.33555237 94.34138885 -17.34066772 93.36454773 C-17.35531151 90.217817 -17.36209527 87.07113669 -17.36761475 83.92437744 C-17.37336465 81.74202981 -17.37912241 79.55968219 -17.3848877 77.37733459 C-17.39540419 72.7965776 -17.40124252 68.21583818 -17.40472412 63.6350708 C-17.41020825 57.76370604 -17.43423194 51.89257325 -17.46269608 46.02128124 C-17.48131529 41.51143209 -17.48652769 37.00163887 -17.48806 32.49175453 C-17.49108899 30.32719976 -17.49912579 28.16264603 -17.51224518 25.99812889 C-17.52928942 22.96970331 -17.52742918 19.94184513 -17.52093506 16.91339111 C-17.53014984 16.01813721 -17.53936462 15.1228833 -17.54885864 14.20050049 C-17.50950461 8.3454677 -16.5616419 4.95612767 -12.47698975 0.56890869 C-8.4966207 -1.4750646 -4.22081092 -1.20626903 0 0 Z " fill="#000000" transform="translate(317.16448974609375,364.61859130859375)"/>
<path d="M0 0 C8.99374633 3.95724838 14.63694206 14.77874233 19.83203125 22.70703125 C22.1793144 26.27236403 24.57907808 29.79696982 27 33.3125 C27.44714355 33.9621875 27.89428711 34.611875 28.35498047 35.28125 C33.38347853 42.57420315 38.44919906 49.84141792 43.51757812 57.10668945 C44.17048828 58.04343506 44.82339844 58.98018066 45.49609375 59.9453125 C46.07544678 60.77562988 46.6547998 61.60594727 47.25170898 62.46142578 C49.19821357 65.28781241 51.10258366 68.14048043 53 71 C52.99555878 70.30144394 52.99111755 69.60288788 52.98654175 68.88316345 C52.94635339 62.27781373 52.91595908 55.67249848 52.89637566 49.06705379 C52.88596894 45.67168368 52.87186716 42.27641517 52.84912109 38.88110352 C52.8230958 34.97152959 52.81350146 31.06199583 52.8046875 27.15234375 C52.79436493 25.94166733 52.78404236 24.73099091 52.77340698 23.48362732 C52.77156451 9.57127172 52.77156451 9.57127172 57.4375 4.1875 C62.509547 -0.14229622 65.54298274 -0.43423039 72.046875 -0.31640625 C76.0050156 0.10768024 78.12311819 1.27065059 81 4 C85.85065833 10.35603506 85.15640728 18.03913453 85.17700195 25.66772461 C85.18357315 26.73024948 85.19014435 27.79277435 85.19691467 28.88749695 C85.21657521 32.39244667 85.22829145 35.89735377 85.23828125 39.40234375 C85.24235678 40.60168612 85.2464323 41.80102848 85.25063133 43.03671455 C85.27145679 49.37953645 85.28577621 55.7223369 85.29516602 62.06518555 C85.3062493 68.61337503 85.34068181 75.16122648 85.38033772 81.70929623 C85.40647457 86.74936049 85.41485506 91.78934361 85.41844749 96.82946968 C85.42331756 99.24357968 85.43494339 101.65768596 85.45348549 104.07172966 C85.47782336 107.44905426 85.47692173 110.82549548 85.4699707 114.20288086 C85.48278076 115.1968689 85.49559082 116.19085693 85.50878906 117.21496582 C85.4627924 123.35226868 84.63177093 126.99837237 81 132 C76.01031158 135.97138466 71.91663896 136.64734058 65.578125 136.37890625 C58.87314723 135.3934777 54.85009735 130.13346313 51 125 C49.15233874 122.31907974 47.3652425 119.60316206 45.58203125 116.87890625 C42.25340527 111.83351042 38.77282497 106.89299189 35.3125 101.9375 C29.51948563 93.63610024 23.7661108 85.30980383 18.07348633 76.93920898 C17.33134888 75.84974976 17.33134888 75.84974976 16.57421875 74.73828125 C16.14713623 74.10962158 15.72005371 73.48096191 15.2800293 72.83325195 C13.89776152 70.85357453 12.45248148 68.92855191 11 67 C10.99635437 67.75088898 10.99270874 68.50177795 10.98895264 69.27542114 C10.95101719 76.3670046 10.89410206 83.45812601 10.81609726 90.54936409 C10.77666111 94.19471102 10.74445412 97.83981781 10.72900391 101.48535156 C10.71381121 105.00643076 10.67932118 108.52684959 10.63169098 112.04763412 C10.60972868 114.03825582 10.60752851 116.02906394 10.60565186 118.01980591 C10.42361025 129.29030091 10.42361025 129.29030091 6 134 C2.20215049 136.97669286 -1.20743499 137.75210871 -6 138 C-11.56954661 137.03973334 -14.34684707 135.27940772 -18 131 C-20.75465169 126.86802247 -21.12323375 123.23872455 -21.13371277 118.35246277 C-21.13797775 117.44842209 -21.14224274 116.54438141 -21.14663696 115.61294556 C-21.14618378 114.63361053 -21.14573059 113.65427551 -21.14526367 112.64526367 C-21.14862228 111.60399826 -21.1519809 110.56273285 -21.15544128 109.48991394 C-21.16493643 106.04925339 -21.16689372 102.60864159 -21.16796875 99.16796875 C-21.17118246 96.77289307 -21.17454662 94.37781758 -21.17805481 91.98274231 C-21.18404258 86.96171616 -21.18589508 81.94070721 -21.18530273 76.91967773 C-21.18520116 70.49385437 -21.19884972 64.06814163 -21.21607494 57.64234447 C-21.22720774 52.69488521 -21.22922154 47.74745258 -21.22869301 42.79998207 C-21.22987133 40.43137544 -21.2342848 38.06276809 -21.24202538 35.69417381 C-21.25185036 32.37701098 -21.24893712 29.06008681 -21.24291992 25.74291992 C-21.24853943 24.76965759 -21.25415894 23.79639526 -21.25994873 22.79364014 C-21.19991903 9.73433332 -21.19991903 9.73433332 -17.34375 4.94140625 C-16.7353125 4.48636719 -16.126875 4.03132812 -15.5 3.5625 C-14.8915625 3.08941406 -14.283125 2.61632812 -13.65625 2.12890625 C-9.36435431 -0.79646605 -5.04844935 -0.52360078 0 0 Z " fill="#000000" transform="translate(427,238)"/>
<path d="M0 0 C15.10940265 11.1505049 23.46260104 27.59694486 27.14453125 45.671875 C28.92500219 66.32533786 24.377831 84.04250892 11.45703125 100.296875 C10.998125 100.93238281 10.53921875 101.56789063 10.06640625 102.22265625 C0.30662163 115.01032586 -17.32329733 122.53456244 -32.8203125 124.76953125 C-52.64639998 126.70976703 -70.55362202 121.5180003 -86.1640625 109.234375 C-99.69883235 97.69788928 -109.10605221 81.69759524 -110.77490234 63.81103516 C-111.94070757 44.08060925 -107.7543523 26.06373738 -94.73046875 10.671875 C-69.39322132 -16.8371365 -30.78503752 -20.61793603 0 0 Z M-72.13671875 31.984375 C-79.34592965 41.12776444 -80.70590193 51.99461812 -79.54296875 63.296875 C-77.60565646 72.75338064 -72.43641576 80.54870282 -64.7890625 86.40625 C-55.44247816 92.56100758 -46.29055386 95.31626561 -35.10546875 93.734375 C-25.22305682 91.62668545 -16.75156211 86.25516285 -10.54296875 78.296875 C-4.71205979 68.95552086 -1.9342783 59.05134095 -4.1953125 48.15234375 C-7.23275012 36.95423683 -13.51379355 28.00571459 -23.62109375 22.078125 C-40.64190898 13.2525171 -59.36773307 18.46427251 -72.13671875 31.984375 Z " fill="#000000" transform="translate(175.54296875,250.703125)"/>
<path d="M0 0 C3.01831406 2.84275217 5.76560397 5.89812087 6.23828125 10.13671875 C6.41992098 16.37938947 5.79449664 19.9748558 2 25 C-1.79070952 28.1589246 -6.10083213 29.29171928 -11 29 C-15.2980386 27.74787092 -19.30763353 25.85481776 -23.296875 23.83984375 C-32.51925999 19.52265346 -43.3679628 19.43664833 -53 22.625 C-63.8073667 27.27524624 -69.8891002 34.47442949 -74.375 45.25 C-77.80043427 55.55508798 -76.71550197 65.33322095 -72 75 C-66.58720011 85.55495978 -58.09899906 90.71515128 -47.0546875 94.37109375 C-46.37664062 94.57863281 -45.69859375 94.78617187 -45 95 C-45.57160238 97.96008377 -46.2221067 100.83290013 -47 103.75 C-48.65927471 111.01861385 -48.67615945 118.57723365 -49 126 C-68.24889546 122.92836775 -84.1961195 113.67470257 -96 98 C-106.86875809 81.71370247 -110.57328652 63.08254871 -107.375 43.765625 C-103.81886252 26.0127199 -93.70325771 10.54378164 -78.87524414 0.15185547 C-55.61393121 -15.15667771 -23.17283132 -16.22506884 0 0 Z " fill="#000000" transform="translate(320,249)"/>
<path d="M0 0 C4.52488127 2.14336481 6.89879323 4.46581697 9 9 C10.26737782 13.67310405 10.13379981 18.302169 10.11352539 23.10473633 C10.11367142 24.01254852 10.11381744 24.92036072 10.1139679 25.85568237 C10.11327281 28.84782321 10.10549931 31.83990132 10.09765625 34.83203125 C10.09579064 36.90996771 10.09436741 38.98790462 10.09336853 41.06584167 C10.08955465 46.52877013 10.07973399 51.99167191 10.06866455 57.45458984 C10.05842616 63.03157185 10.05386571 68.60855818 10.04882812 74.18554688 C10.03811072 85.12370963 10.02104784 96.06185259 10 107 C10.92897095 106.93099487 10.92897095 106.93099487 11.87670898 106.8605957 C14.72933841 106.65932434 17.58303852 106.48577402 20.4375 106.3125 C21.41138672 106.23966797 22.38527344 106.16683594 23.38867188 106.09179688 C30.11866859 105.70915492 37.2734384 105.74101059 42.62280273 110.41918945 C46.35981973 114.70870994 47.30788175 118.30743855 47.21484375 123.94140625 C46.73807026 128.50976317 44.77437114 131.30117726 41.4375 134.3125 C37.19166736 137.2519226 33.60742302 137.32022405 28.5625 137.5625 C27.72009766 137.6042334 26.87769531 137.6459668 26.00976562 137.68896484 C-10.92400472 139.36839575 -10.92400472 139.36839575 -18 133 C-22.10827496 128.14270445 -21.42906352 122.633794 -21.40405273 116.60375977 C-21.41091599 115.45199249 -21.41777924 114.30022522 -21.42485046 113.11355591 C-21.44315267 109.30604731 -21.4392759 105.4989494 -21.43359375 101.69140625 C-21.43815386 99.04491542 -21.44345892 96.39842578 -21.44947815 93.75193787 C-21.45950375 88.20462109 -21.45621208 82.65742093 -21.44604492 77.11010742 C-21.43456534 70.70534469 -21.44863816 64.30100077 -21.4754414 57.89629322 C-21.50029492 51.72555559 -21.5027722 45.55501077 -21.49632454 39.38422966 C-21.49617109 36.76276897 -21.50223443 34.1413003 -21.51461601 31.51986885 C-21.52948751 27.85480693 -21.51887568 24.19066774 -21.50170898 20.52563477 C-21.51137695 19.44232376 -21.52104492 18.35901276 -21.53100586 17.24287415 C-21.4715191 11.17991545 -21.07025618 7.60429013 -17 3 C-11.77740143 -1.05630398 -6.34659858 -0.77397544 0 0 Z " fill="#000000" transform="translate(21,238)"/>
<path d="M0 0 C8.92646219 7.63412364 14.86180089 16.63737871 18.3046875 27.92578125 C18.4375 31.2890625 18.4375 31.2890625 18.3046875 33.92578125 C-11.19823318 47.22076829 -41.87763353 49.6528345 -72.6953125 38.92578125 C-76.45170117 37.41501509 -80.0999636 35.78680987 -83.6953125 33.92578125 C-83.49050436 22.04690892 -77.25749578 11.48763654 -69.140625 3.109375 C-49.46854114 -14.45723024 -21.05216334 -16.20101266 0 0 Z " fill="#000000" transform="translate(288.6953125,177.07421875)"/>
<path d="M0 0 C4.93043297 2.15146166 6.92767857 4.94164519 9.16905975 9.61303711 C10.72786014 14.09085448 10.51977511 18.58731626 10.45410156 23.28125 C10.45468567 24.38457169 10.45526978 25.48789337 10.45587158 26.62464905 C10.45309799 30.25009264 10.4220388 33.87470107 10.390625 37.5 C10.38316007 40.02204947 10.37746833 42.54410476 10.37347412 45.06616211 C10.35979285 51.01237038 10.32830841 56.95831333 10.28807616 62.90438557 C10.24324527 69.67828162 10.22134311 76.45219244 10.20129442 83.2262001 C10.15957207 97.15096396 10.0892911 111.07546568 10 125 C8.56079273 124.52495654 7.12198626 124.0486987 5.68334961 123.57192993 C4.88207138 123.30684443 4.08079315 123.04175892 3.25523376 122.76864052 C0.63971737 121.8772066 -1.89884959 120.86404726 -4.4375 119.7734375 C-5.35144531 119.3815625 -6.26539063 118.9896875 -7.20703125 118.5859375 C-8.58955078 117.98652344 -8.58955078 117.98652344 -10 117.375 C-10.95261719 116.96765625 -11.90523438 116.5603125 -12.88671875 116.140625 C-19.86624765 113.13375235 -19.86624765 113.13375235 -21 112 C-21.11670757 108.86588447 -21.16804102 105.75352691 -21.17700195 102.6184082 C-21.18357315 101.63303574 -21.19014435 100.64766327 -21.19691467 99.63243103 C-21.21670505 96.35521376 -21.2283242 93.07804247 -21.23828125 89.80078125 C-21.24235678 88.68386587 -21.2464323 87.56695049 -21.25063133 86.41618919 C-21.27151849 80.5024776 -21.28580763 74.58878938 -21.29516602 68.67504883 C-21.30622427 62.56267532 -21.34061021 56.45066649 -21.38033772 50.33842182 C-21.40647588 45.6432375 -21.41485548 40.94814031 -21.41844749 36.25288963 C-21.4233222 33.99983449 -21.43496121 31.74678347 -21.45348549 29.49379921 C-21.47781234 26.33842717 -21.47692315 23.18400141 -21.4699707 20.02856445 C-21.48278076 19.09793182 -21.49559082 18.16729919 -21.50878906 17.20846558 C-21.46397632 11.62578621 -20.73683892 8.42232165 -17 4 C-11.8726135 -0.75221187 -6.66465834 -0.95351297 0 0 Z " fill="#000000" transform="translate(376,238)"/>
<path d="M0 0 C0.86936691 -0.00570007 1.73873383 -0.01140015 2.63444519 -0.01727295 C4.47446477 -0.02671778 6.31450123 -0.03325488 8.15454102 -0.03710938 C10.95945019 -0.04680237 13.76362254 -0.0778251 16.56835938 -0.109375 C18.35806858 -0.11590668 20.14778301 -0.1211565 21.9375 -0.125 C23.18935844 -0.1435202 23.18935844 -0.1435202 24.46650696 -0.16241455 C30.58985382 -0.13917323 34.83028791 0.99531532 39.41796875 5.328125 C44.97537339 14.4581469 43.16921821 25.17377829 41.16796875 35.203125 C39.83659976 40.32293346 38.07431301 45.26991353 36.16796875 50.203125 C30.50020733 49.60409331 25.77102224 47.52280808 20.60546875 45.265625 C18.93762008 44.54789797 17.26965472 43.83044204 15.6015625 43.11328125 C14.83054199 42.7795752 14.05952148 42.44586914 13.26513672 42.10205078 C10.91511941 41.09474418 8.54953317 40.1333475 6.16796875 39.203125 C7.15796875 36.563125 8.14796875 33.923125 9.16796875 31.203125 C7.32332031 31.25533203 7.32332031 31.25533203 5.44140625 31.30859375 C3.80860748 31.33674545 2.17579385 31.36404413 0.54296875 31.390625 C-0.26527344 31.41576172 -1.07351563 31.44089844 -1.90625 31.46679688 C-6.99163786 31.5288138 -10.42976814 31.03939223 -14.83203125 28.203125 C-19.50380468 23.02629498 -20.17986535 19.80959002 -20.1171875 12.96875 C-19.62093605 8.1557907 -17.2938854 5.48778471 -13.76953125 2.390625 C-9.39197007 -0.29239637 -4.9599392 0.02507496 0 0 Z " fill="#000000" transform="translate(299.83203125,290.796875)"/>
<path d="M0 0 C3.89652928 2.0477505 6.20854247 4.24037229 7.8984375 8.27734375 C9.16636483 13.54411882 8.94608532 17.2512991 6.8984375 22.27734375 C3.58008801 26.10620855 0.66756366 28.86908387 -4.3515625 30.02734375 C-9.99637688 30.40366471 -13.60477643 29.57455835 -17.9140625 25.83984375 C-21.23719335 21.94703333 -22.71593911 19.3868536 -23.1015625 14.27734375 C-22.48414242 8.44615414 -20.75779198 5.04667238 -16.1015625 1.27734375 C-11.18896826 -1.64755513 -5.39421898 -1.85488943 0 0 Z " fill="#000000" transform="translate(263.1015625,85.72265625)"/>
</svg>
